<?xml version="1.0" standalone="no"?><!DOCTYPE svg PUBLIC "-//W3C//DTD SVG 1.1//EN" "http://www.w3.org/Graphics/SVG/1.1/DTD/svg11.dtd"><svg t="1509259287986" class="icon" style="" viewBox="0 0 1024 1024" version="1.1" xmlns="http://www.w3.org/2000/svg" p-id="4096" xmlns:xlink="http://www.w3.org/1999/xlink" width="48" height="48"><defs><style type="text/css"></style></defs><path d="M478.952758 473.099188C566.01184 381.502388 659.660136 276.926388 767.580833 151.972788 793.86138 121.969588 792.894622 75.300788 765.850846 48.087988 738.807068 20.875188 692.428136 19.902388 662.58585 46.321588 479.385255 206.526388 403.672858 282.737588 244.463119 467.083188 232.556733 480.676788 226.552659 497.700788 225.713106 514.775988 225.636783 516.235188 225.433255 517.694388 225.407814 519.153588 225.433255 520.663988 225.636783 522.148788 225.738547 523.633588 226.5781 540.683188 232.582174 557.681588 244.463119 571.249588 403.672858 755.595188 479.410696 831.780788 662.611292 991.985588 692.428136 1018.430388 738.807068 1017.457588 765.850846 990.244788 792.894622 963.031988 793.86138 916.363188 767.606275 886.334388 659.685578 761.380788 566.01184 656.804788 478.952758 565.207988 454.402199 539.377588 454.402199 498.929588 478.952758 473.099188Z" p-id="4097" fill="#e6e6e6"></path></svg>